<?xml version="1.0" encoding="UTF-8"?>
<svg id="_레이어_2" data-name="레이어 2" xmlns="http://www.w3.org/2000/svg" viewBox="0 0 86.42 82.36">
  <defs>
    <style>
      .cls-1 {
        fill: #fff;
        stroke: #a7a7a7;
      }

      .cls-1, .cls-2 {
        stroke-miterlimit: 10;
        stroke-width: 1.5px;
      }

      .cls-2 {
        fill: #eab529;
        stroke: #eab529;
      }
    </style>
  </defs>
  <g id="_레이어_1-2" data-name="레이어 1">
    <g>
      <path class="cls-1" d="M44.16,1.44l9.34,28.75c.13.41.52.69.95.69h30.23c.96,0,1.37,1.23.59,1.8l-24.45,17.77c-.35.25-.5.7-.36,1.11l9.34,28.75c.3.92-.75,1.68-1.53,1.11l-24.45-17.77c-.35-.25-.82-.25-1.17,0l-24.45,17.77c-.78.57-1.83-.2-1.53-1.11l9.34-28.75c.13-.41-.01-.86-.36-1.11L1.16,32.68c-.78-.57-.38-1.8.59-1.8h30.23c.43,0,.81-.28.95-.69L42.26,1.44c.3-.92,1.6-.92,1.89,0Z"/>
      <path class="cls-2" d="M42.26,1.44l-9.34,28.75c-.13.41-.52.69-.95.69H1.75c-.96,0-1.37,1.23-.59,1.8l24.45,17.77c.35.25.5.7.36,1.11l-9.34,28.75c-.3.92.75,1.68,1.53,1.11l24.45-17.77c.17-.13.38-.19.59-.19V.75c-.4,0-.8.23-.95.69Z"/>
    </g>
  </g>
</svg>